<svg width="283" height="207" viewBox="0 0 283 207" fill="none" xmlns="http://www.w3.org/2000/svg">
<path fill-rule="evenodd" clip-rule="evenodd" d="M110.593 1.37212L78.2491 86.6923C77.9896 87.3529 77.4705 87.8248 76.7628 87.99L1.62455 105.073C0.775259 105.262 0.161903 105.922 0.0203552 106.795C-0.0976013 107.668 0.303456 108.471 1.05838 108.895L56.2384 139.663C57.1349 140.159 57.5359 141.244 57.1584 142.212L33.8267 203.724C33.4964 204.574 33.7559 205.518 34.4872 206.084C35.2186 206.65 36.1622 206.697 36.9407 206.178L281.7 41.3187C282.55 40.7524 282.856 39.6907 282.432 38.7469C282.031 37.8266 281.016 37.3311 280.049 37.5671L118.331 77.6317C117.34 77.8677 116.349 77.3722 115.924 76.452C115.523 75.5082 115.83 74.4463 116.679 73.88L141.946 57.2691C142.842 56.6792 143.149 55.523 142.63 54.5556L114.32 1.11254C113.919 0.381086 113.188 -0.0436302 112.362 0.00356018C111.536 0.0507505 110.852 0.569861 110.546 1.3485" fill="#E30613"/>
<path fill-rule="evenodd" clip-rule="evenodd" d="M220.929 203.866L122.459 164.438C121.374 163.99 120.643 163.07 120.525 161.89C120.407 160.71 120.902 159.648 121.869 158.988L175.445 122.722C176.177 122.227 176.979 122.061 177.852 122.25C178.724 122.439 179.385 122.911 179.857 123.666L224.751 199.336C225.435 200.515 225.364 201.931 224.468 202.969C223.595 204.007 222.203 204.361 220.929 203.866Z" fill="#E30613"/>
<path d="M220.505 60.5251C221.566 61.1857 222.652 61.7991 223.713 62.389C224.751 62.9789 225.813 63.5688 226.851 64.1115C224.397 65.3148 221.967 66.5182 219.538 67.6979C219.655 66.471 219.797 65.244 219.962 64.0171C220.104 62.8373 220.316 61.6812 220.505 60.5014M210.172 81.5011C213.191 79.6371 216.211 77.7495 219.231 75.8619C219.325 74.5878 219.42 73.3136 219.538 72.063C223.029 70.0811 226.544 68.1226 230.059 66.1406C231.003 66.5654 231.97 66.9665 232.89 67.3676C235.91 65.5036 238.93 63.616 241.973 61.7284C239.283 61.0205 236.5 60.2182 233.692 59.1329C230.743 58.0003 227.724 56.6319 224.657 55.1454C220.717 56.3959 216.801 57.6464 212.885 58.8734C212.224 62.2475 211.564 65.7867 211.139 69.4912C210.691 73.3372 210.408 77.3247 210.195 81.4775L210.172 81.5011ZM182.735 75.0124C184.976 74.163 187.194 73.3136 189.459 72.4406C190.426 74.3282 191.44 76.2394 192.431 78.127C193.422 80.0146 194.413 81.9022 195.38 83.7899C192.195 85.5123 189.01 87.2583 185.826 88.9572C188.114 85.9842 187.123 83.3652 185.66 80.5809C184.693 78.7405 183.726 76.8765 182.759 75.0361L182.735 75.0124ZM170.892 72.2519C171.86 74.0923 172.827 75.9562 173.818 77.7967C174.785 79.6371 175.752 81.5011 176.743 83.3415C177.168 84.1438 177.616 84.9225 177.97 85.7483C179.668 89.901 177.616 93.2515 174.832 94.9032C175.87 96.8851 176.932 98.8672 177.97 100.826C179.008 102.808 180.069 104.79 181.131 106.748C183.466 105.12 185.802 103.492 188.161 101.887C187.265 100.212 186.415 98.5368 185.519 96.8616C191.322 93.2515 197.126 89.6651 202.953 86.0314C203.661 87.3999 204.368 88.7684 205.076 90.137C207.435 88.5089 209.771 86.8808 212.13 85.2527C211.422 83.8842 210.714 82.5157 210.007 81.1472C209.299 79.7787 208.591 78.4102 207.883 77.018C206.609 77.7023 205.383 78.3865 204.132 79.0472C202.858 76.5697 201.561 74.0687 200.287 71.5912C199.013 69.1137 197.716 66.6126 196.442 64.1351C187.902 66.8486 179.432 69.5384 170.916 72.2519H170.892ZM144.706 90.3493C146.098 88.2965 147.56 86.6449 150.321 85.6303C153.222 84.5685 155.747 84.946 156.737 86.81C157.445 88.1078 157.658 90.1606 153.458 91.9302C151.713 92.6617 149.99 93.4167 148.245 94.1482C149.401 96.2953 150.533 98.4189 151.689 100.542C153.387 99.7166 155.062 98.8907 156.761 98.0649C160.583 96.2009 162.659 96.8852 163.579 98.6076C164.216 99.8346 164.475 102.312 160.724 104.388C158.365 105.686 154.591 105.851 151.194 104.884C151.052 107.55 150.934 110.24 150.863 113.001C157.87 114.039 161.102 113.189 165.348 110.5C172.143 106.205 175.752 99.7166 173.015 94.5492C170.821 90.4201 166.551 90.3021 163.532 90.774C163.532 90.7268 163.485 90.7032 163.485 90.6561C166.268 88.2022 166.976 84.7808 165.537 82.0674C163.107 77.4663 155.888 76.027 148.056 78.4573C142.276 80.2506 139.162 83.7191 137.982 85.1348C140.224 86.9044 142.465 88.6268 144.682 90.3257L144.706 90.3493ZM132.792 129.588C138.832 125.836 144.871 122.085 150.91 118.333C149.448 115.62 147.985 112.906 146.522 110.193C143.196 111.986 139.846 113.803 136.52 115.62C135.482 113.661 134.42 111.703 133.382 109.768C136.473 108.258 139.563 106.724 142.653 105.214C141.309 102.713 139.94 100.189 138.596 97.6874C135.411 99.0324 132.226 100.401 129.041 101.722C128.145 100.023 127.201 98.3245 126.305 96.6256C129.867 95.2571 133.453 93.8886 137.015 92.4965C135.552 89.783 134.113 87.0696 132.627 84.3561C125.715 86.5505 118.779 88.7448 111.89 90.9392C115.358 97.3807 118.85 103.822 122.341 110.264C125.809 116.682 129.301 123.123 132.792 129.564V129.588ZM107.219 133.694C105.568 130.697 103.94 127.677 102.289 124.657C103.657 123.996 105.025 123.312 106.394 122.651C107.856 121.943 111.206 120.315 113.471 124.492C115.83 128.857 112.551 130.768 111.206 131.499C109.862 132.231 108.54 132.986 107.219 133.717V133.694ZM97.4997 115.856C95.9427 113.001 94.4093 110.146 92.8522 107.314C94.1733 106.819 95.4944 106.347 96.8155 105.851C100.024 104.648 102.218 106.205 103.421 108.423C104.27 109.98 104.955 112.647 101.345 114.204C100.071 114.747 98.7736 115.313 97.4997 115.856ZM78.3672 101.581C82.5429 109.273 86.7657 116.988 90.9413 124.68C95.117 132.372 99.3399 140.064 103.516 147.756C108.658 144.571 113.825 141.362 118.968 138.153C125.974 133.812 125.88 126.521 122.884 120.976C118.968 113.732 112.999 113.614 110.499 113.921C110.499 113.897 110.451 113.85 110.428 113.803C112.433 111.467 113.282 107.385 110.97 103.161C109.272 100.07 104.506 93.2751 95.0934 96.2481C89.5023 98.0177 83.9111 99.7874 78.3436 101.557L78.3672 101.581ZM58.9515 123.666C59.8716 120.811 61.0276 118.593 63.7877 117.578C66.6895 116.516 69.6148 117.649 71.337 120.74C72.5401 122.934 73.413 126.143 69.2374 127.936C67.4916 128.691 65.7694 129.423 64.0237 130.154C65.911 133.623 67.8218 137.091 69.6856 140.536C71.3841 139.71 73.0828 138.885 74.7577 138.059C78.6031 136.195 81.1745 137.799 82.7552 140.701C83.8639 142.754 84.8784 146.6 81.151 148.677C78.7918 149.974 74.4746 149.219 70.3226 146.883C70.9124 150.777 71.5021 154.717 72.1391 158.681C80.4904 162.173 84.0291 161.843 88.2755 159.153C95.0698 154.882 97.3582 146.058 92.4748 137.115C88.5822 129.966 83.6044 128.621 80.3016 128.597C80.2545 128.526 80.2309 128.455 80.1837 128.385C82.5664 125.27 82.2834 120.032 79.6883 115.289C75.3711 107.385 66.8311 103.61 59.0459 106.017C53.2425 107.81 50.8833 112.576 50.034 114.558C53.0065 117.649 55.979 120.669 58.9515 123.666Z" fill="white"/>
</svg>
