<svg width="27" height="21" viewBox="0 0 27 21" fill="none" xmlns="http://www.w3.org/2000/svg">
<path d="M2.44109 2.09976L9.83788 6.7992M18.2358 12.1263L25.6409 16.8258M20.9 10.5819L25.3347 13.4065C26.2035 13.9516 26.4517 15.0914 25.9056 15.9586L24.3833 18.3455L24.0192 18.9153C23.0925 20.3772 21.2309 20.9058 19.6672 20.1707L15.4641 18.1968C14.5953 17.8747 13.7597 17.4617 12.9819 16.9662L7.47987 13.4726C6.69386 12.9688 5.96574 12.3989 5.31211 11.7382L1.73784 8.78139C0.414028 7.67466 0.107892 5.7668 1.03456 4.3132L1.40687 3.73507L2.92099 1.35644C3.46706 0.497492 4.61712 0.241457 5.47759 0.78656L9.92063 3.61119C10.7811 4.15629 11.0459 5.30431 10.4915 6.16326L8.22451 9.71467L16.0846 14.7114L18.3434 11.16C18.8977 10.3011 20.0395 10.045 20.9 10.5901V10.5819Z" stroke="#E30613" stroke-miterlimit="10"/>
</svg>
